PathFileType	4	(X/Y/Z)	C:\Users\Basilio\Documents\Thesis Gigler\squatting_fais\c3dfiles\058\SLS_back_pre2\markers_experimental.trc
DataRate	CameraRate	NumFrames	NumMarkers	Units	OrigDataRate	OrigDataStartFrame	OrigNumFrames
200.000000	200.000000	4	61	mm	200.000000	557	1487
Frame#	Time	FHD			LBHD			RBHD			C7			T10			CLAV			LSHO			LUUPA			LMUPA			LDUPA			LLEP			LMEP			LUL			LRFIN			RSHO			RUPA1			RMUPA			RDUPA			RLEP			RMEP			RRAD			RUL			RUFIN			LASI			RASI			USACR			LSACR			RSACR			LTHI1			LTHI2			LTHI3			LTHI4			LLFC			LMFC			LTIB1			LTIB2			LTIB3			LTIB4			LLMAL			LMMAL			LHEE			LMT1			LMT5			RTHI			RTHI2			RTHI3			RTHI4			RLFC			RMFC			RTIB1			RTIB2			RTIB3			RTIB4			RLMAL			RMMAL			RHEE			RMT1			RMT2			RMT5			LRAD			LMT2			
		X1	Y1	Z1	X2	Y2	Z2	X3	Y3	Z3	X4	Y4	Z4	X5	Y5	Z5	X6	Y6	Z6	X7	Y7	Z7	X8	Y8	Z8	X9	Y9	Z9	X10	Y10	Z10	X11	Y11	Z11	X12	Y12	Z12	X13	Y13	Z13	X14	Y14	Z14	X15	Y15	Z15	X16	Y16	Z16	X17	Y17	Z17	X18	Y18	Z18	X19	Y19	Z19	X20	Y20	Z20	X21	Y21	Z21	X22	Y22	Z22	X23	Y23	Z23	X24	Y24	Z24	X25	Y25	Z25	X26	Y26	Z26	X27	Y27	Z27	X28	Y28	Z28	X29	Y29	Z29	X30	Y30	Z30	X31	Y31	Z31	X32	Y32	Z32	X33	Y33	Z33	X34	Y34	Z34	X35	Y35	Z35	X36	Y36	Z36	X37	Y37	Z37	X38	Y38	Z38	X39	Y39	Z39	X40	Y40	Z40	X41	Y41	Z41	X42	Y42	Z42	X43	Y43	Z43	X44	Y44	Z44	X45	Y45	Z45	X46	Y46	Z46	X47	Y47	Z47	X48	Y48	Z48	X49	Y49	Z49	X50	Y50	Z50	X51	Y51	Z51	X52	Y52	Z52	X53	Y53	Z53	X54	Y54	Z54	X55	Y55	Z55	X56	Y56	Z56	X57	Y57	Z57	X58	Y58	Z58	X59	Y59	Z59	X60	Y60	Z60	X61	Y61	Z61	

558	2.785	-232.9278259277344	1802.222412109375	-648.4962768554689	-389.8540649414064	1767.12646484375	-730.9471435546876	-213.9972076416016	1811.99365234375	-790.794860839844	-405.8625793457032	1601.413330078125	-756.0566406250001	-423.7509765625001	1296.758544921875	-732.5221557617189	-255.5669250488282	1549.037963867188	-723.8755493164064	-250.2299041748047	1600.455078125	-878.8015136718752	-92.52563476562501	1506.841674804688	-971.1717529296877	-65.56068420410158	1542.411376953125	-947.325378417969	-23.47759628295899	1500.026000976563	-957.6531372070315	47.93339538574219	1496.037719726563	-935.4361572265627	43.00475692749024	1443.62841796875	-894.9415283203127	313.5751037597657	1501.412719726563	-887.8165283203127	399.5866699218751	1507.89404296875	-800.0930175781252	-292.7682800292969	1611.453979492188	-576.3746948242189	-149.6113739013672	1508.089599609375	-458.245086669922	-121.8729019165039	1544.482421875	-479.9024963378907	-80.1444549560547	1510.141235351563	-455.6842651367189	-13.34936809539795	1494.701293945313	-458.3574218750001	-8.145876884460451	1435.20166015625	-508.0472717285157	259.3703613281251	1504.398193359375	-544.7408447265626	257.5539550781251	1516.578125	-463.9674072265626	348.1652526855469	1533.882080078125	-531.8912963867189	-248.0939025878907	1091.980224609375	-844.8679809570315	-264.0899658203126	1074.849731445313	-603.6077270507814	-442.2973022460939	1182.905883789063	-720.9951171875001	-450.0398864746095	1153.376220703125	-750.8510742187501	-449.2660522460939	1149.434692382813	-693.0131835937501	-256.4782409667969	841.6785278320315	-969.4782714843752	-213.5875244140626	767.1079101562501	-976.3632812500002	-171.6715240478516	765.4279785156251	-948.1394042968752	-235.1975402832032	712.5482788085939	-988.3814086914065	-247.651840209961	635.7921752929689	-989.4582519531252	-241.5915527343751	595.0648803710939	-856.2893676757815	-357.8851623535157	578.7197875976564	-954.1057739257815	-388.6021118164064	650.9853515625001	-991.162048339844	-400.8699645996095	610.8326416015626	-979.5911254882815	-478.4492492675782	619.3363647460939	-949.4154052734377	-647.6246948242189	731.7250366210939	-935.789001464844	-641.8898925781251	684.0184936523439	-854.1364746093752	-607.1464843750001	774.269226074219	-874.842224121094	-791.618591308594	657.6153564453126	-845.4253540039065	-794.702575683594	717.5676269531251	-934.2171020507815	-386.8403320312501	870.0653076171877	-563.0122680664064	-353.6421203613282	812.706726074219	-559.9194335937501	-320.2623901367188	810.394470214844	-558.1769409179689	-380.9382324218751	738.0015869140626	-586.8824462890626	-375.3330688476563	556.7935791015626	-614.7475585937501	-335.1179199218751	555.3071289062501	-747.0695190429689	-314.4387512207032	360.2948913574219	-714.7852783203126	-350.5253906250001	275.0918579101563	-657.8449707031251	-313.8162841796876	273.0329895019532	-688.4608154296876	-320.1461486816407	231.8537292480469	-727.8094482421876	-376.7641296386719	119.3732070922852	-698.5008544921876	-345.3026123046876	146.4089813232422	-783.1719970703127	-440.4330444335939	102.6675262451172	-763.0493774414064	-229.2488861083985	61.06974029541017	-774.9400634765627	-225.771469116211	57.46530914306642	-722.6892700195314	-274.8866271972657	25.98011207580567	-672.3449707031251	301.3341674804688	1485.337524414063	-809.3386840820315	-806.1250610351565	661.7894287109376	-890.503112792969	
559	2.79	-232.9888153076172	1802.259399414063	-648.5055541992189	-389.9375610351564	1766.985717773438	-730.8848876953126	-214.1770019531251	1811.88134765625	-790.8038330078127	-405.8068237304689	1601.3583984375	-755.9165649414064	-423.7581481933595	1296.675415039063	-732.4068603515626	-255.4288635253907	1549.069458007813	-723.7946166992189	-250.2237091064454	1600.45654296875	-878.6364746093752	-92.26973724365236	1507.203491210938	-971.099792480469	-65.62002563476564	1542.63134765625	-947.0113525390627	-23.45030403137207	1500.30224609375	-957.543884277344	47.96633911132813	1496.241333007813	-935.2147216796877	43.04132461547852	1443.731201171875	-894.5312500000002	313.8154602050782	1501.942138671875	-887.5718383789065	399.5414123535157	1508.30126953125	-799.5284423828127	-292.6374816894532	1611.524169921875	-576.2888793945314	-149.3304138183594	1508.225219726563	-458.2737731933595	-121.6991424560547	1544.704345703125	-479.9685058593751	-79.83987426757814	1510.406372070313	-455.7648925781251	-13.14736938476563	1494.935668945313	-458.3728637695314	-7.747992992401125	1435.5380859375	-508.070526123047	259.3628845214844	1504.649169921875	-544.8147583007814	258.1958312988282	1517.340942382813	-463.6600036621095	348.4759216308594	1534.21630859375	-532.1332397460939	-248.2335510253907	1091.855102539063	-844.7393188476565	-264.1977233886719	1074.767700195313	-603.5148925781251	-442.3260803222657	1182.930908203125	-720.9414672851564	-450.1061401367189	1153.380004882813	-750.8186035156251	-449.3565063476564	1149.413940429688	-692.9959716796876	-256.7957153320313	841.6240234375002	-969.2429809570315	-213.8944244384766	766.9392700195314	-976.1289672851565	-171.9955596923828	765.0343627929689	-947.825622558594	-235.5279388427735	712.4387207031251	-988.0754394531252	-247.9247741699219	635.6397705078126	-989.2517089843752	-242.056381225586	594.6569213867189	-855.9590454101565	-358.1389770507813	578.2334594726564	-954.1990356445315	-389.4510192871095	650.5023803710939	-991.6826782226565	-401.217254638672	610.4024658203126	-979.8084716796877	-478.8812255859376	618.4042968750001	-949.8088378906252	-648.3352050781251	730.7760620117189	-936.5312500000002	-642.8872680664064	683.1372680664064	-855.1069335937502	-608.3121948242189	773.6060180664065	-875.4100341796877	-792.3941040039065	656.2292480468751	-846.4184570312502	-795.4667968750002	716.4204101562501	-935.466003417969	-387.0895080566407	869.9043579101565	-562.9848632812501	-353.8468322753907	812.2993164062502	-560.2036132812501	-320.5433654785157	810.1854248046877	-558.3084106445314	-381.4017639160157	737.7533569335939	-586.9168701171876	-376.0555114746094	556.7278442382814	-614.8151855468751	-335.4678344726563	555.3447265625001	-747.1605834960939	-314.6369323730469	360.2669372558594	-714.9360961914064	-350.5947570800782	274.9746093750001	-658.1323242187501	-313.9409179687501	272.9199218750001	-688.6301269531251	-320.2195739746094	231.9014434814454	-728.0784301757814	-376.7819519042969	119.4144973754883	-698.6738281250001	-345.2479858398438	146.4289703369141	-783.3289184570315	-440.3431091308595	102.6141738891602	-763.1806030273439	-229.1996765136719	61.02528381347658	-775.0441894531252	-225.7221374511719	57.5351028442383	-722.7927856445314	-274.8758544921876	26.11122512817384	-672.3415527343751	301.3464050292969	1486.078002929688	-808.939147949219	-807.1046142578127	660.6375732421876	-891.9205322265627	
560	2.795	-233.1018524169922	1802.244506835938	-648.4171752929689	-389.9776916503907	1766.778076171875	-730.7810058593751	-214.3059387207032	1811.83642578125	-790.8230590820315	-405.8169250488282	1601.309692382813	-755.7791748046876	-423.7416076660157	1296.663208007813	-732.3440551757814	-255.4568023681641	1548.982666015625	-723.7012939453126	-250.2076568603516	1600.446533203125	-878.528259277344	-92.1262893676758	1507.383178710938	-970.878601074219	-65.44315338134767	1542.929443359375	-946.731628417969	-23.06887817382813	1500.627197265625	-957.5969848632815	48.02446746826173	1496.562866210938	-934.9661254882815	43.08786392211915	1443.862426757813	-894.2209472656252	313.9981079101563	1502.577880859375	-887.2134399414065	399.6937561035157	1508.6396484375	-799.153747558594	-292.3857727050782	1611.585205078125	-576.2740478515626	-149.2245788574219	1508.320190429688	-458.217742919922	-121.5793075561524	1544.817016601563	-479.9644470214845	-79.63054656982423	1510.637939453125	-455.861297607422	-12.95033264160157	1495.164672851563	-458.3782958984376	-7.527551651000978	1435.73681640625	-508.0164794921876	259.6481628417969	1504.934692382813	-545.0313110351564	258.5481872558594	1517.72265625	-463.9470214843751	349.4523925781251	1534.84423828125	-531.9988403320314	-248.2840423583985	1091.753295898438	-844.6529541015627	-264.3207092285157	1074.709838867188	-603.4875488281251	-442.3538513183595	1182.917602539063	-720.9083251953126	-450.1915283203126	1153.359985351563	-750.7406616210939	-449.419647216797	1149.390625	-692.9682617187501	-256.4930114746094	841.7886352539065	-969.4031982421877	-214.2664031982422	766.7240600585939	-975.8315429687502	-172.602767944336	764.9230346679689	-947.462829589844	-235.9579162597657	712.1985473632814	-987.7913818359377	-248.2742309570313	635.3922729492189	-988.994812011719	-242.9641571044922	594.4058837890626	-855.6228027343752	-358.5503234863282	577.6526489257814	-954.1547851562502	-390.1765136718751	650.0575561523439	-992.0465087890627	-401.6864013671876	609.9744262695314	-979.2896728515627	-479.503143310547	618.1255493164064	-950.1175537109377	-649.0783691406251	729.8088989257814	-937.2334594726565	-643.9725952148439	682.0772705078126	-855.5175781250002	-609.2988891601564	772.5466918945315	-876.0462036132815	-793.3397216796877	655.0249633789064	-848.135437011719	-796.5106201171877	715.1065673828126	-936.5849609375002	-387.159393310547	869.8936157226565	-562.9832763671876	-354.0726623535157	812.2512817382815	-560.2075805664064	-320.7412414550782	810.0855102539065	-558.3690795898439	-381.5836791992188	737.6072998046876	-587.0093994140626	-376.2486877441407	556.6398315429689	-614.9125366210939	-335.8429565429688	555.3345947265626	-747.3098144531251	-314.8194885253907	360.2923889160157	-715.1586914062501	-350.6613159179688	274.8765563964844	-658.4470214843751	-314.0623779296876	272.9436340332032	-688.8772583007814	-320.3744506835938	231.9031372070313	-728.3268432617189	-376.8023681640626	119.4035263061524	-698.9354248046876	-345.2419433593751	146.3622283935547	-783.4938964843752	-440.2732238769532	102.5331268310547	-763.2633666992189	-229.2763366699219	60.99984741210939	-775.1140747070315	-225.756332397461	57.47135543823244	-722.8171386718751	-274.9032897949219	26.26349258422852	-672.4501342773439	301.4787597656251	1486.5947265625	-808.654235839844	-807.8079223632815	659.0416259765626	-893.4880371093752	
561	2.8	-233.1518707275391	1802.40283203125	-648.4090576171876	-390.0213317871095	1766.742431640625	-730.6742553710939	-214.4663391113282	1811.7119140625	-790.9041748046877	-405.7809448242189	1601.205444335938	-755.6315307617189	-423.7424316406251	1296.632446289063	-732.3215942382814	-255.2567749023438	1548.963256835938	-723.5968017578126	-250.1647949218751	1600.383178710938	-878.4471435546877	-91.35878753662111	1507.984008789063	-971.1428833007815	-65.30885314941408	1543.277465820313	-946.4866943359377	-22.48971939086914	1501.04736328125	-957.7540283203127	48.03012466430665	1496.937255859375	-934.6308593750002	43.11137390136719	1444.067260742188	-893.9402465820315	314.0243530273438	1503.099731445313	-886.7976684570315	399.6740722656251	1509.082275390625	-798.7752685546877	-292.2206115722657	1611.609741210938	-576.2207641601564	-149.0600128173828	1508.563354492188	-458.0926208496095	-121.5162353515625	1544.955932617188	-480.0220642089845	-79.3324661254883	1510.8955078125	-455.9089660644532	-12.24760246276856	1495.698120117188	-458.4556274414064	-7.265960216522219	1435.943237304688	-507.8706665039064	260.1325988769532	1505.382568359375	-545.3406982421876	258.9393920898438	1518.115966796875	-464.0824584960939	349.5464477539063	1535.1689453125	-532.1851196289064	-248.3778228759766	1091.64599609375	-844.5110473632815	-264.3158264160157	1074.662231445313	-603.4107055664064	-442.4566650390626	1182.870483398438	-720.8397216796876	-450.2538452148439	1153.366333007813	-750.7130737304689	-449.4716186523439	1149.344116210938	-692.9321289062501	-256.6524353027344	841.6003417968752	-969.202575683594	-214.5605163574219	766.5147705078126	-975.5086669921877	-172.9957885742188	764.7173461914064	-947.1333618164065	-236.3654479980469	712.0944824218751	-987.3957519531252	-248.7456054687501	635.1321411132814	-988.6465454101565	-243.4856109619141	594.1582641601564	-855.2188720703127	-358.9408874511719	577.0585327148439	-954.2883911132815	-390.8959045410157	650.7979125976564	-992.2558593750002	-402.0263977050782	609.2571411132814	-980.3524169921877	-480.0436096191407	617.4653320312501	-950.5117187500002	-649.8557128906251	728.6150512695314	-938.1091918945315	-644.8822021484376	680.9765014648439	-856.480895996094	-610.3380126953126	771.4158935546877	-876.5125122070315	-794.5780029296877	653.3786010742189	-848.6357421875002	-796.9342041015627	713.7610473632814	-937.9613037109377	-387.4206848144532	869.7495117187502	-562.9744262695314	-354.3038330078126	812.0986328125002	-560.3457641601564	-320.8288574218751	810.021911621094	-558.4406738281251	-381.8274841308594	737.5764160156251	-587.0873413085939	-376.5039672851563	556.5396118164064	-614.9959716796876	-336.3583679199219	555.3679199218751	-747.4739379882814	-315.0460510253907	360.2113037109376	-715.3798217773439	-350.6681518554688	274.8129577636719	-658.5975952148439	-314.0888366699219	272.9520874023438	-689.1350708007814	-320.5141906738282	232.0299682617188	-728.6196289062501	-376.8354187011719	119.4197692871094	-699.1366577148439	-345.2789001464844	146.276840209961	-783.690856933594	-440.2973022460939	102.4387283325196	-763.4071655273439	-229.3040313720704	61.02784729003908	-775.2064208984377	-225.7338867187501	57.50319290161134	-722.9024047851564	-274.8749084472657	26.38744354248048	-672.4966430664064	301.4438781738282	1487.014282226563	-808.4268798828127	-808.7280273437502	657.4965209960939	-894.9090576171877	
